PathFileType	4	(X/Y/Z)	C:/Users/beibeiliu/ov580/test_trc/User3\sequence.13_training_dense_right.trc
DataRate	CameraRate	NumFrames	NumMarkers	Units	OrigDataRate	OrigDataStartFrame	OrigNumFrames
120	120	18	19	mm	120	70	278
Frame#	Time	ThumbCMC			ThumbMCP			ThumbIP			ThumbTip			IndexMCP			IndexPIP			IndexTip			MiddleMCP			MiddlePIP			MiddleTip			RingMCP			RingPIP			RingTip			PinkyMCP			PinkyPIP			PinkyTip			BackHand1			BackHand2			BackHand3	
		X0	Y0	Z0	X1	Y1	Z1	X2	Y2	Z2	X3	Y3	Z3	X4	Y4	Z4	X5	Y5	Z5	X6	Y6	Z6	X7	Y7	Z7	X8	Y8	Z8	X9	Y9	Z9	X10	Y10	Z10	X11	Y11	Z11	X12	Y12	Z12	X13	Y13	Z13	X14	Y14	Z14	X15	Y15	Z15	X16	Y16	Z16	X17	Y17	Z17	X18	Y18	Z18	
69	0.575	175.729	9.41188	3.52959	145.444	21.6437	-10.4805	114.289	14.8083	-26.4712	98.8911	-2.9776	-22.9877	169.233	-14.0587	-68.1953	161.19	-11.7827	-91.0578	151.487	-8.88739	-113.386	151.406	-36.2417	-65.0132	136.947	-33.2198	-87.7858	113.523	-31.782	-110.668	126.581	-32.1516	-40.4245	108.761	-7.94752	-33.8392	124.511	-1.97956	-2.28146	118.144	-34.2079	-24.1746	105.185	-15.3333	-11.878	122.784	-5.0991	9.70524	167.066	-52.5977	-7.52003	182.787	-47.0655	23.6225	194.104	-23.3513	-1.28978	
70	0.583333	173.799	12.7947	7.01125	139.92	21.6497	-10.0002	110.016	16.9664	-24.6147	95.4653	-7.17164	-22.7407	165.917	-13.3931	-68.3562	159.88	-7.74894	-91.1672	149.591	-3.82439	-116.768	150.738	-36.6736	-63.0458	139.53	-30.6438	-86.7135	116.889	-30.4085	-109.391	128.307	-29.8826	-41.2908	106.574	-8.91781	-34.3112	122.402	2.21575	-5.40838	118.258	-35.1179	-25.0461	106.894	-13.1652	-10.8808	122.282	-3.55178	7.4143	166.974	-49.483	-8.05718	180.285	-46.0226	20.2846	193.577	-22.9937	-3.52433	
71	0.591667	169.796	16.3549	6.86301	135.643	26.9044	-8.38732	107.718	12.0945	-21.6588	92.8992	-11.8176	-21.2849	166.933	-7.24928	-65.5196	155.97	-5.55326	-90.8324	149.633	0.0907236	-111.474	152.09	-29.4464	-66.7475	139.658	-28.0356	-87.063	117.4	-24.9626	-114.463	126.953	-28.5383	-42.1233	104.549	-13.335	-31.9021	121.133	1.34123	-2.51962	119.933	-37.6328	-22.3261	106.437	-15.5851	-14.6271	120.294	-6.3482	7.93822	171.341	-47.2772	-5.64426	183.385	-41.2838	25.3843	192.006	-15.4098	1.36488	
72	0.6	166.903	20.3259	11.7935	129.496	24.3598	-7.80649	104.076	10.2257	-20.7261	94.0508	-14.5868	-19.3613	165.429	-3.20693	-61.4748	154.808	0.339747	-90.6764	144.623	2.42334	-112.16	152.444	-25.607	-64.7152	137.466	-26.7606	-87.4118	120.74	-22.4064	-111.373	130.312	-27.9862	-42.0412	104.954	-9.61727	-32.6337	116.849	-2.29197	-1.64316	123.863	-37.2876	-23.9607	107.428	-15.2381	-12.2209	121.801	-7.7381	13.3104	173.792	-41.7568	-6.33552	182.747	-39.6489	20.666	190.92	-8.08726	-3.01714	
73	0.608333	160.323	22.938	10.8819	122.874	27.5314	-3.84455	100.541	8.42843	-17.0433	93.5462	-16.3935	-19.4403	164.064	5.4744	-61.6964	154.964	11.8505	-86.9569	145.609	10.9446	-107.957	154.661	-18.6161	-64.2748	140.738	-19.7555	-84.547	123.088	-18.826	-111.187	132.92	-25.278	-42.4787	102.553	-15.1583	-31.8167	114.035	-3.50714	-2.07674	124.919	-37.9554	-24.1094	105.094	-21.3785	-10.8799	120.922	-8.79066	13.8748	174.748	-33.341	-8.62564	185.5	-31.7616	23.3742	189.596	-0.607218	2.21838	
74	0.616667	154.444	25.3768	15.8469	118.849	22.2802	-2.06194	98.2227	5.58484	-15.1376	95.3681	-21.024	-18.6104	161.335	13.5395	-59.0485	152.19	17.9229	-86.0336	142.151	15.1451	-105.915	155.447	-11.7468	-63.834	141.459	-15.7406	-87.0128	126.526	-16.6186	-110.503	135.38	-24.2806	-43.1713	103.553	-16.5045	-31.0918	109.827	-6.74246	-4.13632	128.258	-37.5153	-25.8285	106.405	-21.8932	-11.3823	121.446	-9.79832	11.144	176.57	-30.3531	-9.13003	187.102	-26.4238	24.3864	187.093	5.24026	0.505133	
75	0.625	147.951	27.281	18.66	113.112	22.3602	2.84935	93.8404	3.68418	-13.6814	93.3404	-26.5722	-23.7919	156.968	21.5682	-57.7194	148.073	25.7914	-81.6638	140.001	28.5073	-103.958	157.989	-2.09594	-59.7781	144.302	-5.04822	-87.738	127.644	-9.21677	-114.956	133.591	-22.3101	-45.5518	106.792	-18.8829	-37.9654	110.454	-10.3962	-4.4569	133.614	-37.2917	-26.7771	109.054	-29.2874	-14.8621	119.596	-14.7902	12.6645	179.714	-23.5136	-8.45208	187.816	-20.6878	24.3431	185.14	14.4156	3.49659	
76	0.633333	142.168	27.1031	23.9797	108.622	16.377	0.806422	94.0604	-3.04092	-15.4382	94.1765	-29.35	-26.5221	154.43	25.9074	-50.5929	143.971	35.3879	-75.655	136.113	32.9464	-103.154	158.134	4.76651	-59.5882	147.596	0.171677	-85.6862	133.309	-0.970408	-111.154	139.887	-17.1986	-43.6772	108.191	-22.6541	-34.6521	112.134	-14.6595	-4.2157	138.697	-34.0431	-27.8161	113.56	-31.1571	-15.9657	120.845	-14.784	11.5766	181.813	-12.9404	-2.79889	191.437	-15.6912	22.4025	180.885	19.3014	12.583	
77	0.641667	134.41	25.721	26.6549	107.944	10.4681	5.67066	95.4388	-7.19343	-17.0833	101.615	-32.4981	-30.4865	146.394	37.1476	-50.0338	137.452	39.6208	-72.598	133.174	39.0514	-96.8846	157.977	10.8376	-57.7933	148.712	10.7673	-82.0414	139.635	2.96966	-111.062	141.213	-18.9832	-46.1599	114.674	-23.6915	-37.5688	114.164	-17.8079	-5.5938	145.463	-36.2386	-28.2921	120.387	-35.5084	-14.1281	128.088	-20.5256	12.7821	182.02	-4.64351	-4.27349	190.273	-8.14931	24.3518	174.175	23.1208	14.0666	
78	0.65	127.356	20.6002	31.4328	103.554	5.19895	6.21225	99.0522	-13.7143	-25.8911	116.478	-32.8279	-35.7862	140.873	37.43	-41.5231	130.872	45.8761	-66.2239	128.909	46.6505	-90.9379	158.226	19.906	-50.6721	153.561	15.8837	-79.249	144.701	13.8299	-108.319	149.043	-13.6845	-44.7135	124.363	-30.7858	-37.6444	123.478	-22.7304	-5.84086	153.129	-31.8442	-32.1426	131.665	-39.2312	-20.0932	131.188	-23.2145	6.41715	183.795	6.80904	-0.118252	189.354	5.12826	31.522	166.039	28.9272	18.7486	
79	0.658333	120.417	11.4306	31.3004	102.372	-2.1513	2.16733	105.612	-16.6012	-22.7245	124.879	-28.6198	-39.7	130.171	43.4473	-39.2512	126.1	48.2514	-63.8207	118.592	55.1193	-84.3982	153.194	29.9036	-46.9702	150.637	28.4321	-74.11	144.479	27.6115	-108.979	154.375	-2.32744	-41.8137	133.24	-27.9889	-41.9283	131.793	-24.9776	-7.47451	165.981	-23.5908	-35.198	142.204	-33.3071	-28.0071	141.414	-25.0952	4.09758	180.149	16.6724	6.36538	183.406	13.0446	34.1941	154.158	30.4434	27.0107	
80	0.666667	116.957	2.49557	33.2585	103.48	-8.77674	-1.8129	109.37	-17.7567	-29.7208	129.029	-26.061	-47.8481	126.198	43.841	-34.1901	116.48	51.9781	-56.0561	111.865	59.6962	-78.3676	149.598	35.3284	-43.907	148.873	37.5911	-70.5025	141.781	41.0789	-100.493	157.11	5.26569	-41.331	142.433	-21.946	-46.4506	136.623	-27.4243	-12.565	170.874	-9.47662	-35.1012	152.622	-31.617	-30.2715	150.109	-23.1987	0.465625	173.477	23.1552	11.5194	178.248	14.318	39.0063	145.392	27.2667	31.7567	
81	0.675	115.099	-5.45518	32.2224	104.487	-13.5999	-1.47578	110.36	-16.6395	-31.815	134.353	-18.2574	-44.0054	116.172	44.4144	-27.7908	108.192	53.5069	-50.0559	102.477	64.7671	-72.5011	146.599	41.9099	-40.9182	143.792	45.9376	-68.0747	137.186	52.2357	-95.7391	157.248	10.3504	-41.349	144.73	-18.7049	-47.0456	144.098	-28.1315	-13.8853	171.987	-3.2629	-34.6883	158.724	-27.3776	-32.2421	151.126	-26.2397	-2.81108	169.844	23.9537	17.2392	177.645	13.8395	43.8757	143.456	23.8149	33.9627	
82	0.683333	111.976	-9.03096	30.655	104.819	-14.1977	-2.91281	114.796	-12.6756	-32.988	137.137	-12.9114	-46.2429	115.771	45.0297	-26.4722	105.873	54.7899	-44.7158	100.833	64.505	-64.8566	141.05	45.0421	-34.1556	136.022	52.0884	-57.3575	134.501	61.273	-92.7251	155.254	15.2795	-40.4042	146.436	-13.7441	-47.1857	144.38	-26.0631	-19.4972	172.934	4.35295	-31.377	161.187	-22.8006	-33.5942	152.03	-25.8439	-6.18169	168.19	27.6063	15.4233	172.363	16.2134	43.9706	138.035	22.3178	33.9512	
83	0.691667	116.184	-10.9821	31.3246	104.66	-14.4857	-5.34308	113.233	-12.1952	-33.3425	137.274	-9.39812	-48.3961	114.974	45.606	-21.0507	101.199	58.2059	-42.7457	93.0292	69.5553	-62.7941	141.948	48.1516	-30.276	137.116	56.0975	-55.1801	132.636	65.9515	-85.3239	154.33	20.5932	-35.2065	151.163	-6.11275	-49.908	142.254	-24.0142	-20.0534	171.538	5.96323	-33.2496	158.763	-18.1926	-33.5055	152.059	-23.8067	-7.48122	169.205	28.3124	19.2944	175.206	11.8381	47.9107	138.005	22.3949	37.4912	
84	0.7	116.341	-11.6965	29.9521	108.341	-12.8638	-4.78215	115.335	-9.83035	-37.0241	137.907	-7.8944	-47.1448	109.054	47.6256	-19.4391	102.753	59.4749	-41.7691	94.1272	71.5719	-61.4491	139.063	49.1225	-28.0228	136.289	61.5974	-56.1624	135.495	71.7291	-84.5461	153.616	23.2745	-37.9385	155.492	-4.96316	-50.2635	144.034	-21.9616	-23.5396	175.735	11.5046	-28.4442	165.281	-15.9866	-35.681	152.927	-20.533	-9.36119	163.171	30.3326	19.5834	172.545	14.3492	46.5621	138.398	21.3372	36.2373	
85	0.708333	117.432	-10.4095	27.8408	108.712	-14.3047	-6.00458	120.262	-9.71773	-35.0683	140.286	-8.43239	-50.6075	113.882	45.9219	-19.1911	104.211	59.5251	-40.6852	96.5859	72.1652	-62.7356	139.877	52.286	-31.2584	141.317	60.3354	-52.9179	137.707	72.7032	-85.514	161.282	21.87	-37.6612	154.707	-2.95466	-50.2744	150.966	-23.3958	-21.212	176.006	9.11333	-30.5854	166.412	-15.2932	-33.9816	154.105	-17.5816	-4.63279	165.657	28.3596	22.8529	173.343	10.9688	49.5654	140.156	19.3525	40.2375	
86	0.716667	117.805	-10.772	26.7586	110.149	-17.8698	-6.83401	122.044	-13.1473	-39.4474	144.897	-13.1848	-51.5137	117.592	45.1633	-25.3298	110.51	53.0881	-44.7718	104.647	67.1071	-71.0462	148.057	48.2356	-32.0433	147.467	56.8868	-58.5485	144.18	65.2408	-90.318	165.742	16.8724	-39.5882	158.245	-11.0837	-47.8211	149.462	-24.9681	-18.5251	179.775	4.82749	-28.1835	166.595	-19.6375	-30.1	157.33	-22.5118	-2.74981	169.577	27.4039	19.4289	175.41	14.727	49.7655	140.336	22.5136	36.1392	
